<?xml version="1.0" encoding="utf-8"?>
<!-- Generator: Adobe Illustrator 18.0.0, SVG Export Plug-In . SVG Version: 6.00 Build 0)  -->
<!DOCTYPE svg PUBLIC "-//W3C//DTD SVG 1.1//EN" "http://www.w3.org/Graphics/SVG/1.1/DTD/svg11.dtd">
<svg version="1.1" id="Calque_1" xmlns="http://www.w3.org/2000/svg" xmlns:xlink="http://www.w3.org/1999/xlink" x="0px" y="0px"
	 viewBox="0 0 56.3 68.3" enable-background="new 0 0 56.3 68.3" xml:space="preserve">
<g>
	<path fill="#231F20" d="M54.3,35.2c-1.3-1.8-3.3-4.2-5-6.3c-3.1-3.7-7.3-5.5-11.9-5.5h-1.1l-0.4,0c-0.3,0.6-1.5,1.5-3.2,2.1
		c-1.3,0.5-3,0.9-4.7,0.9c-1.8,0-3.4-0.4-4.7-0.9c-1.7-0.6-2.9-1.5-3.2-2.1h-1.4c-4.6,0-8.8,1.8-11.9,5.5c-1.7,2.1-3.6,4.6-5,6.3
		c-0.9,1.2-0.5,2.9,0.8,3.6l8.6,4.4h0.2v19.4c0,1.9,1.6,3.5,3.5,3.5h26.2c1.9,0,3.5-1.6,3.5-3.5V43.1h0.2l8.6-4.4
		C54.8,38.1,55.2,36.3,54.3,35.2z M22.9,54.3c0,1.1-0.9,1.9-1.9,1.9c-1.1,0-1.9-0.9-1.9-1.9V39.6l-2.1,1.5c-0.9,0.6-2.1,0.4-2.7-0.4
		c-0.6-0.9-0.4-2.1,0.4-2.7l5.2-3.7c0.6-0.4,1.4-0.5,2-0.1c0.6,0.3,1,1,1,1.7V54.3z M34,56.3c-3.9,0-6.8-4.8-6.8-11.2
		c0-6.4,2.9-11.2,6.8-11.2s6.8,4.8,6.8,11.2C40.7,51.4,37.8,56.3,34,56.3z"/>
	<path fill="#231F20" d="M34,37.8c-1.2,0-2.9,2.9-2.9,7.3c0,4.4,1.8,7.3,2.9,7.3c1.2,0,2.9-2.9,2.9-7.3C36.9,40.7,35.1,37.8,34,37.8
		z"/>
	<path fill="#231F20" d="M25.5,14.9c0.2,0.1,0.3,0.2,0.5,0.3c0,0.3,0,0.5,0,0.7c0,0.2,0,0.4,0,0.9c0,0.1,0,0.2,0,0.4
		c-0.9,1.2-2.4,3.1-4.3,4.5l0.3,0.6c0.3,0.4,1.6,1.1,3.3,1.5c1.1-1,2-2,2.7-2.8c0.7,0.9,1.6,1.9,2.7,2.8c1.1-0.3,2.1-0.7,2.7-1.1
		c0.3-0.2,0.6-0.4,0.7-0.5l0.3-0.6c-2-1.5-3.6-3.5-4.5-4.7c0-0.1,0-0.1,0-0.2c0-0.6,0-0.9,0-1.1c0-0.2,0-0.4,0-1
		c0-1.5-1.2-2.4-2.2-3.1c-1.3-0.9-2-1.5-2-2.6c0-0.6,0-2.3,2.3-2.3c1.1,0,2,0.7,2.2,1.7c0.3,1.1,1.3,1.7,2.4,1.5
		c1.1-0.3,1.7-1.4,1.5-2.4c-0.7-2.8-3.2-4.8-6.1-4.8c-3.8,0-6.3,2.5-6.3,6.3C21.7,12.3,24.2,14,25.5,14.9z"/>
</g>
</svg>
