<?xml version="1.0" encoding="utf-8"?>
<!-- Generator: Adobe Illustrator 18.0.0, SVG Export Plug-In . SVG Version: 6.00 Build 0)  -->
<!DOCTYPE svg PUBLIC "-//W3C//DTD SVG 1.1//EN" "http://www.w3.org/Graphics/SVG/1.1/DTD/svg11.dtd">
<svg version="1.1" id="Calque_1" xmlns="http://www.w3.org/2000/svg" x="0px" y="0px" viewBox="0 0 69.8 104.5" enable-background="new 0 0 69.8 104.5" xml:space="preserve">
<ellipse fill="#231F20" cx="34.9" cy="18.9" rx="14.3" ry="15.1"/>
<g>
	<g>
		<path fill="#231F20" d="M59.3,104.5h10.5c0,0,0-9,0-18.7H59.3C59.3,94.4,59.3,104.5,59.3,104.5z"/>
	</g>
	<g>
		<path fill="#231F20" d="M34.9,39.8C1.1,39.8,0,58.7,0,61.6s0,42.9,0,42.9h10.5c0,0,0-28,0-30.7s4.2-2.7,4.2,0.6s0,30.1,0,30.1
			h20.2h20.2c0,0,0-26.7,0-30.1s4.2-3.4,4.2-0.6c0,0.3,0,0.9,0,1.8h10.5c0-7.1,0-13,0-14C69.8,58.7,68.7,39.8,34.9,39.8z"/>
	</g>
</g>
</svg>
