<?xml version="1.0" encoding="utf-8"?>
<!-- Generator: Adobe Illustrator 18.0.0, SVG Export Plug-In . SVG Version: 6.00 Build 0)  -->
<!DOCTYPE svg PUBLIC "-//W3C//DTD SVG 1.1//EN" "http://www.w3.org/Graphics/SVG/1.1/DTD/svg11.dtd">
<svg version="1.1" id="Calque_1" xmlns="http://www.w3.org/2000/svg" xmlns:xlink="http://www.w3.org/1999/xlink" x="0px" y="0px"
	 viewBox="0 0 54.3 56" enable-background="new 0 0 54.3 56" xml:space="preserve">
<g>
	<path fill="#231F20" d="M27,46.9c6.4,0,11.5-5.2,11.5-11.5S33.4,23.8,27,23.8S15.5,29,15.5,35.3S20.7,46.9,27,46.9z M23.9,41.9
		l-1.7-4.2l1.9-2.4c0.1,0,0.1,0.1,0.2,0.1l4.4,0.9l1,2.7l-2.8,3.6L23.9,41.9z M30.4,44.3l-1.8,0.3c0,0-0.1,0-0.1,0l-0.6-1.3l2.9-3.8
		l2.6-0.3l1.1,2.1C33.5,42.6,32,43.6,30.4,44.3z M36.6,35.3c0,1.8-0.5,3.5-1.4,5l-1.1-2l0.5-2.5l1.9-2.2
		C36.5,34.2,36.6,34.8,36.6,35.3z M31.8,27.2C31.8,27.2,31.8,27.3,31.8,27.2l1.2,0.6c1.5,1.2,2.6,2.8,3.2,4.6l-1.8,2.1l-1.9-1.4
		l-1.8-4.6L31.8,27.2z M29.7,28.8l1.6,4.2L29,35.3l-4.4-0.9c-0.1,0-0.2,0-0.3,0l-1-2.9l3.1-3.5L29.7,28.8z M24.5,26.2h0.7
		c0,0,0.1,0,0.1,0l0.4,1.3l-3.4,3.7L20,31.7l-0.7-1.9C20.6,28.1,22.4,26.8,24.5,26.2z M17.5,35.3c0-1.6,0.4-3.1,1.1-4.4l0.7,1.9
		l-0.4,2.5l-1.3,1.2C17.6,36.2,17.5,35.8,17.5,35.3z M19.3,36.4l1.8,1.3l1.8,4.5L22,43.4c0,0,0,0-0.1,0l-0.3-0.1
		c-1.9-1.3-3.3-3.2-3.9-5.5L19.3,36.4z"/>
	<path fill="#231F20" d="M38.5,13.3c1.1,0,2-0.9,2-2V5.5c0-1.1-0.9-2-2-2c-1.1,0-2,0.9-2,2v5.8C36.4,12.4,37.3,13.3,38.5,13.3z"/>
	<path fill="#231F20" d="M15.6,13.3c1.1,0,2-0.9,2-2V5.5c0-1.1-0.9-2-2-2c-1.1,0-2,0.9-2,2v5.8C13.5,12.4,14.4,13.3,15.6,13.3z"/>
	<path fill="#231F20" d="M46.1,7.2h-3.2v4.1c0,2.4-2,4.4-4.4,4.4c-2.5,0-4.5-2-4.5-4.4V7.2h-3.3h-0.2h-6.9H20v4.1
		c0,2.4-2,4.4-4.4,4.4s-4.4-2-4.4-4.4V7.2H8c-3,0-5.3,2.4-5.3,5.3v34.5c0,3,2.4,5.3,5.3,5.3h38.1c2.9,0,5.3-2.4,5.3-5.3V12.6
		C51.4,9.6,49,7.2,46.1,7.2z M47.7,46c0,1.6-1.3,2.9-2.9,2.9H9.5c-1.6,0-2.9-1.3-2.9-2.9V20.5h41.1V46z"/>
</g>
</svg>
