<?xml version="1.0" encoding="utf-8"?>
<!-- Generator: Adobe Illustrator 18.0.0, SVG Export Plug-In . SVG Version: 6.00 Build 0)  -->
<!DOCTYPE svg PUBLIC "-//W3C//DTD SVG 1.1//EN" "http://www.w3.org/Graphics/SVG/1.1/DTD/svg11.dtd">
<svg version="1.1" id="Calque_1" xmlns="http://www.w3.org/2000/svg" xmlns:xlink="http://www.w3.org/1999/xlink" x="0px" y="0px"
	 viewBox="0 0 70.8 48.8" enable-background="new 0 0 70.8 48.8" xml:space="preserve">
<g>
	<path fill="#231F20" d="M18.2,21.7c-0.9-0.1-2-0.2-3.1-0.2C3.3,21.5,3,27.6,3,27.6c0,0.8-0.1,2.2-0.1,3v9.8c0,0.8,0.7,1.5,1.5,1.5
		h0.6c0.8,0,1.5-0.7,1.5-1.5v-5.6c0-0.8,0.6-1.9,1.3-2.3c0,0,0.2-0.1,0.2,1c0,0.5,0,6.8,0,6.8c0,0.8,0.7,1.5,1.5,1.5h9.8V31.3
		c0-0.9,0-2.3,0.1-3.1c0-0.5,0.3-2.8,3-5.5C21.3,22.2,19.9,21.9,18.2,21.7z"/>
	<ellipse fill="#231F20" cx="15.1" cy="14.2" rx="5" ry="5.3"/>
	<path fill="#231F20" d="M68.3,27.9c0,0-0.3-6.1-12.1-6.1c-0.8,0-1.6,0-2.3,0.1c-1.6,0.1-2.9,0.4-4.1,0.8c3.5,3.6,4.7,8.6,5.4,11.6
		c0.1,0.5,0.2,0.8,0.3,1.2c0.8,3.1,1.2,5.1,1.2,6.4h3.4c0.8,0,1.6,0,1.6,0c0,0,0.4,0,0.7,0c0.4,0,0.7-0.7,0.7-1.5v-5
		c0-0.8,0.3-2.5,0.7-2.2c0.4,0.3,0.7,1.2,0.7,2v5.2c0,0.8,0.7,1.5,1.5,1.5h0.6c0.8,0,1.5-0.7,1.5-1.5v-9.5
		C68.4,30.1,68.3,28.7,68.3,27.9z"/>
	<ellipse fill="#231F20" cx="56.2" cy="14.5" rx="5" ry="5.3"/>
	<path fill="#231F20" d="M53.4,36.1c-0.7-2.6-1.7-8.8-5.8-12.4c-0.1-0.1-0.2-0.2-0.3-0.3c-0.9-0.7-1.9-1.4-3.1-1.8
		c-2-0.7-4.5-1.1-7.7-1.1c-4.4,0-7.6,0.8-9.8,1.9c-0.9,0.5-1.7,1-2.4,1.5c-2.7,2.4-2.8,4.5-2.8,4.5c0,0.8-0.1,2.2-0.1,3v14.3
		c0,0.8,0.7,1.5,1.5,1.5h1.5c0.8,0,1.5-0.7,1.5-1.5v-9c0-0.8,0.3-2,0.7-2.5c0,0,0,0,0.5,0.2c0.3,0.1,0.3,0.1,0.3,0.1
		c0.2,0.5,0.3,1.6,0.3,2.4v8.8c0,0.8,0.7,1.5,1.5,1.5h13c0.8,0,2.1-0.2,2.9-0.5l6.7-2.3c0.8-0.3,1.8-0.7,2.2-0.8c0,0,0,0,0.2-0.3
		c0.1-0.2,0.2-0.6,0.2-1.2C54.6,40.5,54,38.2,53.4,36.1z M48.6,40.3l-0.9,0.3L44,41.8l-3.7,1.2c-1.9-1-3.1-3-3.1-5.3
		c0-3.3,2.7-6,6-6c0.3,0,0.6,0,0.9,0.1c1.5,0.2,2.8,0.9,3.7,2v0c0.9,1.1,1.4,2.4,1.4,3.9C49.2,38.7,49,39.5,48.6,40.3z"/>
	<ellipse fill="#231F20" cx="36.5" cy="10.7" rx="6.2" ry="6.5"/>
</g>
</svg>
